# xmcd
#
# Track frame offsets:
#	150
#	9380
#	18038
#	26637
#	35155
#	42314
#	49590
#	56353
#	62956
#	70920
#	79194
#	87361
#
# Disc length: 1280 seconds
# Revision: 0
# Processed by: cddbd v1.5.2PL0 Copyright (c) Steve Scherf et al.
# Submitted via: dBpowerAMP V12.0
#
DISCID=9504fe0c
DTITLE=Steve Dickson - Smokehouse Pickin'
DYEAR=1900
DGENRE=Instrumental
TTITLE0=Sittin' On Top Of The World
TTITLE1=Wildwood Flower
TTITLE2=Sugar Foot Rag
TTITLE3=Yakety Yak/Huntin' boots
TTITLE4=Possum Trot Pull
TTITLE5=I'll Be There For You
TTITLE6=Randy Lynn Rag
TTITLE7=Ground Speed
TTITLE8=Earl's Breakdown
TTITLE9=Bugle Call Rag
TTITLE10=Home Sweet Home
TTITLE11=Foggy Mountain Breakdown
EXTD=
EXTT0=
EXTT1=
EXTT2=
EXTT3=
EXTT4=
EXTT5=
EXTT6=
EXTT7=
EXTT8=
EXTT9=
EXTT10=
EXTT11=
PLAYORDER=
